<svg width="1400" height="162" viewBox="0 0 1400 162" fill="none" xmlns="http://www.w3.org/2000/svg">
<path d="M379 136.299V50.4664H411.862C445.949 50.4664 462.993 67.2651 462.993 92.647V92.8923C462.993 118.274 445.582 136.299 410.881 136.299H379ZM407.693 111.285H412.475C425.595 111.285 434.055 105.89 434.055 93.5054V93.2601C434.055 80.8757 425.595 75.4805 412.475 75.4805H407.693V111.285Z" fill="white"/>
<path d="M471.089 136.299V50.4664H499.782V136.299H471.089Z" fill="white"/>
<path d="M546.788 137.893C529.377 137.893 513.682 132.988 502.769 123.424L518.096 105.154C527.415 112.266 538.083 115.209 548.137 115.209C553.287 115.209 555.494 113.86 555.494 111.53V111.285C555.494 108.833 552.797 107.484 543.6 105.645C524.349 101.721 507.428 96.203 507.428 78.0555V77.8103C507.428 61.5021 520.18 48.8724 543.846 48.8724C560.399 48.8724 572.661 52.7962 582.593 60.6437L568.614 80.0174C560.522 74.1317 550.835 71.5567 542.865 71.5567C538.573 71.5567 536.611 73.0281 536.611 75.1127V75.3579C536.611 77.6876 538.941 79.159 548.015 80.8757C569.963 84.9221 584.677 91.2982 584.677 108.587V108.833C584.677 126.857 569.841 137.893 546.788 137.893Z" fill="white"/>
<path d="M591.306 136.299V50.4664H664.509V74.0091H619.509V82.715H661.444V103.437H619.509V112.756H665.122V136.299H591.306Z" fill="white"/>
<path d="M672.852 136.299V50.4664H699.706L730.237 88.3554V50.4664H758.685V136.299H733.18L701.3 96.6934V136.299H672.852ZM700.932 46.1748L688.547 43.1094C691 29.1309 695.782 23.6131 703.997 23.6131C711.109 23.6131 721.777 28.3952 725.333 28.3952C728.398 28.3952 729.624 26.8012 731.096 23L743.48 26.0654C741.028 40.0439 736.246 45.5617 728.03 45.5617C720.918 45.5617 710.251 40.7796 706.695 40.7796C703.629 40.7796 702.403 42.3736 700.932 46.1748Z" fill="white"/>
<path d="M813.283 138.138C786.798 138.138 766.566 118.519 766.566 93.628V93.3827C766.566 68.4913 787.043 48.6272 813.529 48.6272C840.014 48.6272 860.246 68.2461 860.246 93.1375V93.3827C860.246 118.274 839.769 138.138 813.283 138.138ZM813.529 112.756C824.442 112.756 831.308 103.683 831.308 93.628V93.3827C831.308 83.2054 824.319 74.0091 813.283 74.0091C802.37 74.0091 795.504 83.0828 795.504 93.1375V93.3827C795.504 103.56 802.493 112.756 813.529 112.756Z" fill="white"/>
<path d="M899.169 136.299V50.4664H932.03C966.118 50.4664 983.162 67.2651 983.162 92.647V92.8923C983.162 118.274 965.75 136.299 931.049 136.299H899.169ZM927.861 111.285H932.643C945.763 111.285 954.224 105.89 954.224 93.5054V93.2601C954.224 80.8757 945.763 75.4805 932.643 75.4805H927.861V111.285Z" fill="white"/>
<path d="M991.258 136.299V50.4664H1019.95V136.299H991.258Z" fill="white"/>
<path d="M1076.28 138.138C1049.55 138.138 1028.09 120.236 1028.09 93.628V93.3827C1028.09 67.7556 1048.32 48.6272 1075.42 48.6272C1090.13 48.6272 1102.03 53.5319 1111.34 61.6247L1095.28 80.9983C1089.64 76.2162 1083.39 73.5186 1076.28 73.5186C1065.12 73.5186 1057.02 82.1019 1057.02 93.7506V93.9958C1057.02 106.135 1065.49 114.473 1077.5 114.473C1082.41 114.473 1085.1 113.737 1087.31 112.511V103.928H1072.6V85.5352H1114.16V125.263C1104.85 132.866 1091.85 138.138 1076.28 138.138Z" fill="white"/>
<path d="M1122.74 136.299V50.4664H1151.43V136.299H1122.74Z" fill="white"/>
<path d="M1183.48 136.299V74.7448H1158.22V50.4664H1237.43V74.7448H1212.17V136.299H1183.48Z" fill="white"/>
<path d="M1226.64 136.299L1262.81 49.8533H1291.26L1327.43 136.299H1296.29L1291.75 124.773H1261.71L1257.3 136.299H1226.64ZM1268.95 104.418H1284.64L1276.79 83.5733L1268.95 104.418Z" fill="white"/>
<path d="M1330.97 136.299V50.4664H1359.66V111.775H1400V136.299H1330.97Z" fill="white"/>
<path d="M2.5494 115.012L57.5258 23H89.988L42.8654 102.536H62.7903L91.7044 54.1903H122.28L81.6103 124.369C73.2333 138.925 57.5258 138.925 50.7192 138.925H20.8749C-0.0685092 138.925 -3.21 124.889 2.5494 115.012Z" fill="white"/>
<path d="M131.351 138.925H100.983L155.87 45.8732H137.021L150.2 23H236.925L222.883 45.8732H186.755L131.351 138.925Z" fill="white"/>
<path d="M214.733 61.4679H190.959L172.317 92.6589H196.092L214.733 61.4679Z" fill="white"/>
<path d="M232.926 100.976L237.638 119.691L294.235 23H326.038L258.059 138.925H213.646L204.129 100.976H232.926Z" fill="white"/>
</svg>
